<?xml version="1.0" encoding="UTF-8"?>
<svg viewBox="0 0 1240 400" xmlns="http://www.w3.org/2000/svg" role="img" aria-hidden="true">
  <rect x="0" y="0" width="1240" height="400" rx="6" fill="#f3ede1"/>
  <rect x="0.5" y="0.5" width="1239" height="399" rx="6" fill="none" stroke="#ddd2bf" stroke-width="1"/>

  <text x="860" y="330" font-family="Georgia, 'Times New Roman', serif" font-size="380" fill="#a8442c" opacity="0.07">&#182;</text>

  <g stroke="#4a433c" stroke-width="3" stroke-linecap="round" opacity="0.2">
    <line x1="140" y1="150" x2="430" y2="150"/>
    <line x1="140" y1="186" x2="520" y2="186"/>
    <line x1="140" y1="222" x2="380" y2="222"/>
  </g>

  <g stroke="#4a433c" stroke-width="3" stroke-linecap="round" opacity="0.45">
    <line x1="160" y1="170" x2="480" y2="170"/>
    <line x1="160" y1="206" x2="410" y2="206"/>
    <line x1="160" y1="242" x2="520" y2="242"/>
  </g>

  <g stroke="#211d19" stroke-width="3" stroke-linecap="round">
    <line x1="180" y1="190" x2="520" y2="190"/>
    <line x1="180" y1="226" x2="350" y2="226"/>
    <line x1="180" y1="262" x2="480" y2="262"/>
  </g>

  <!-- edit mark: strike through the second line, caret and inserted phrase above -->
  <line x1="180" y1="226" x2="350" y2="226" stroke="#a8442c" stroke-width="3"/>
  <path d="M382 226 l8 -14 l8 14" fill="none" stroke="#a8442c" stroke-width="2.5" stroke-linecap="round" stroke-linejoin="round"/>
  <line x1="406" y1="212" x2="470" y2="212" stroke="#a8442c" stroke-width="2.5" stroke-linecap="round"/>
</svg>
